<?xml version="1.0" encoding="UTF-8"?>
<svg id="_Слой_1" data-name="Слой 1" xmlns="http://www.w3.org/2000/svg" viewBox="0 0 49.66 76.36">
  <defs>
    <style>
      .cls-1 {
        fill: red;
      }

      .cls-1, .cls-2, .cls-3, .cls-4 {
        fill-rule: evenodd;
      }

      .cls-2, .cls-3 {
        fill: #3c3c3c;
      }

      .cls-3 {
        opacity: .15;
      }

      .cls-4 {
        fill: #0091ff;
      }
    </style>
  </defs>
  <g>
    <path class="cls-1" d="m48.18,51.04c-.23,0-.43-.17-.45-.4l-4.73-39.86c-.2-.95-.75-1.79-1.55-2.35-.79-.55-1.73-.75-2.65-.57-.92.19-1.7.74-2.21,1.56-.52.83-.69,1.83-.49,2.81.05.25-.11.49-.36.54-.25.05-.49-.11-.54-.36-.25-1.21-.03-2.45.61-3.48.64-1.04,1.64-1.74,2.81-1.98,1.17-.24,2.36.01,3.36.71.99.69,1.68,1.74,1.92,2.96l4.74,39.89c.03.25-.15.48-.4.51h-.05Z"/>
    <path class="cls-1" d="m46.74,42.83c-.59-6.24-3.07-29.82-3.66-32.08-.58-2.26-3.16-4.06-5.55-2.35,1.25-.58,3.54-.15,4.17,3.39.4,2.24.5,12.44.5,12.44l4.54,18.61Z"/>
    <path class="cls-1" d="m49.15,72.52c-.08-17.66-2.34-31.82-6.43-43.93-4.63-13.72-13.38-24.05-15.36-25.57-.82-.63-3.37-3.53-6.02.63-2.42.07,2.03-2.87,2.96-3.33,1.23-.61,2.65-.15,2.77-.08l.36.21c.11.07.2.14.31.22.4.29.73.59,1.05.89.64.61,1.2,1.24,1.76,1.88,1.09,1.28,2.09,2.61,3.04,3.97,1.89,2.72,3.62,5.54,5.16,8.45,1.54,2.92,2.92,5.92,4.11,9,.3.77.58,1.55.86,2.32.27.79.54,1.58.77,2.36l.18.58.17.61.32,1.19c.21.8.44,1.59.63,2.38l.55,2.4.27,1.2.24,1.21.47,2.41c.15.81.27,1.62.4,2.42.28,1.61.47,3.24.7,4.86.11.81.19,1.62.28,2.44.09.81.19,1.62.25,2.44.31,3.25.5,6.51.62,9.78.05,1.63.09,3.26.09,4.89,0,.82,0,1.63-.02,2.45l-.03,1.22c0,.18-.05,1.15-.1,1.37l-.37.23v-1.09h0ZM25.89,2.45h.03s.08,0,.08,0h.04c-.07,0,.21-.02-.15,0h0Zm0,.04s.05-.03,0,0h0Z"/>
  </g>
  <g>
    <path class="cls-4" d="m4.76,69.05c-.14-.2-.27-.39-.39-.6-.68-1.14-1.17-2.4-1.43-3.69-.54-2.59-.22-5.35.98-7.6.29-.57.63-1.1,1.02-1.6.1-.12.19-.26.28-.36l.32-.35c.22-.22.43-.43.67-.62.94-.79,2.03-1.34,3.14-1.7,2.24-.7,4.58-.64,6.49.07.96.36,1.8.88,2.45,1.54.32.33.59.69.81,1.06.21.38.38.77.49,1.17.5,1.58.29,3.13-.4,4.05-.34.46-.78.75-1.19.86-.41.12-.79.08-1.07,0-.29-.08-.49-.2-.62-.28-.13-.09-.19-.13-.19-.13l-.26.34s.08.05.23.15c.16.09.39.23.74.32.34.09.8.14,1.3-.02.49-.15,1.01-.5,1.38-1.02.77-1.06.94-2.73.43-4.38-.12-.41-.3-.84-.52-1.24-.24-.4-.52-.79-.87-1.14-.69-.7-1.58-1.25-2.58-1.62-2-.74-4.41-.83-6.74-.12-1.16.37-2.31.93-3.3,1.75-.25.2-.49.43-.72.66l-.32.35c-.12.13-.21.25-.31.38-.41.51-.78,1.06-1.1,1.64-1.29,2.33-1.8,5.2-1.33,7.99.24,1.39.69,2.77,1.4,4.02.16.28.33.55.52.82l.69-.7Z"/>
    <path class="cls-4" d="m15.18,71.24c-.45-.13-.89-.32-1.31-.59-.87-.52-1.68-1.31-2.05-2.35-.38-1.02-.22-2.24.38-3.22.6-.97,1.77-1.56,2.96-1.5.59.03,1.18.2,1.68.53.5.32.89.8,1.1,1.36.21.56.25,1.18.15,1.79-.02.16-.05.33-.09.47-.04.15-.07.3-.12.44-.05.15-.1.3-.17.44-.06.15-.13.28-.21.42-.51.94-1.34,1.68-2.32,2.19h0Zm7.92-6.45v.03c.02.16.03.4.02.72-.02.63-.17,1.57-.74,2.62-.29.52-.65,1.08-1.16,1.58-.51.49-1.19.91-1.96,1.22-.78.3-1.66.49-2.6.48-.09,0-.19,0-.28,0,.73-.55,1.34-1.24,1.74-2.06.08-.16.16-.32.22-.49.07-.16.12-.33.17-.5.1-.33.17-.71.2-1.03.09-.7.02-1.43-.26-2.08-.28-.65-.76-1.21-1.35-1.56-.59-.36-1.26-.54-1.92-.55-.66,0-1.32.14-1.89.45-.57.31-1.04.77-1.36,1.31-.62,1.08-.76,2.39-.33,3.48.43,1.09,1.28,1.89,2.18,2.44.36.23.74.41,1.14.54-.08.04-.16.08-.24.11-1.19.51-2.52.72-3.84.7-1.31-.03-2.66-.33-3.75-.95-.43-.25-.82-.55-1.18-.89l-.61.77c.39.36.82.69,1.29.96,1.34.74,2.8,1.01,4.25,1.03,1.44,0,2.9-.25,4.2-.87.38-.18.75-.39,1.1-.63.19.02.37.03.55.03.97,0,1.88-.17,2.68-.47.81-.3,1.51-.73,2.06-1.24.55-.52.93-1.09,1.25-1.63.59-1.07.79-2.04.85-2.7l-.4-.82Z"/>
  </g>
  <path class="cls-2" d="m47.31,74.72c-.07,0-.14-.04-.18-.1-.06-.1-.03-.23.07-.29.07-.04,1.74-1.09,2-1.24.1-.06.23-.03.29.08.06.1.02.23-.08.29-.25.14-1.97,1.22-1.98,1.23-.04.02-.07.03-.11.03Z"/>
  <path class="cls-2" d="m7.29,66.46l-.49.06-.13-.03.23-.4,22.42-24.12-8.52,9.59-13.51,14.9h0Zm-.5,1.1c-.25.63-1.06,1.58-1.34,1.84l.04-.2s.85-1.17.8-1.45c-.05-.29-.04-.84.35-.82.17,0,.4,0,.15.63h0Zm-3.79,3.96c.6-.18,2.43-2.52,2.62-3,.22-.55-.03-.58-.2-.49-.42.22-2.21,1.82-2.64,2.37-.39.49-.48.87-.35,1.05,0,0,.07.23.57.07h0Zm-1.19-.37c.03-.63.8-.98.58-.68-.45.61-.26,1.04-.23,1.18.05.2-.38.01-.36-.5h0Zm19.44-20.91s-14.63,15.52-15.21,16.05c-.89.65-3.49,2.87-4.01,3.58-.56.76-.82,1.77-.21,2.25.53.42,1.1.52,2.19-.34.83-.66,2.26-2.72,3.23-4.23.52-.65,13.43-14.59,13.43-14.59l18.26-21.52-17.67,18.81Z"/>
  <path class="cls-2" d="m36.84,68.2c-.08.05-.16.11-.28.18-.08.05-.17.11-.26.17-.1.05-.21.11-.33.17-.24.12-.5.27-.81.37-.15.06-.31.12-.47.19-.17.05-.34.1-.52.15-.35.12-.75.16-1.15.24-.38.02-.77.08-1.17.06.02.08.03.15.02.22,1.8,0,3.59-.53,5.12-1.59-.05-.04-.09-.09-.13-.15Z"/>
  <path class="cls-2" d="m27.15,53.78c.13-.09.27-.18.42-.27.15-.08.31-.16.47-.24.32-.18.69-.3,1.05-.45.38-.1.77-.24,1.18-.3.41-.09.83-.11,1.25-.16.42,0,.84-.01,1.26.05.42.02.81.13,1.2.2h.04c.02-.06.05-.12.1-.18l.03-.02c-2.68-.7-5.59-.13-7.82,1.63-.05.13-.06.26-.03.39.05-.04.1-.08.15-.12.2-.16.43-.35.7-.52Z"/>
  <path class="cls-2" d="m31.88,51.66c-2.74,0-5.34,1.2-7.12,3.28-3.36,3.93-2.9,9.85,1.03,13.21,1.7,1.45,3.86,2.25,6.09,2.25,2.74,0,5.34-1.19,7.12-3.28,3.36-3.92,2.9-9.85-1.03-13.21-1.7-1.45-3.86-2.25-6.09-2.25h0Zm0,19.26c-2.35,0-4.64-.84-6.43-2.38-4.15-3.55-4.63-9.8-1.09-13.95,1.88-2.2,4.62-3.46,7.52-3.46,2.35,0,4.64.84,6.43,2.38,4.15,3.55,4.63,9.81,1.09,13.95-1.88,2.2-4.62,3.46-7.52,3.46Z"/>
  <path class="cls-4" d="m30.8,64.62c.21,0,.42.16.43.42,0,.16.11.19.17.19.04,0,.13-.01.16-.12v-.03c.06-.19.22-.32.42-.32s.35.12.41.3c.04.13.13.15.16.15.05,0,.1-.02.13-.05.03-.03.04-.07.04-.12,0-.15.04-.26.12-.34.18-.18.52-.16.66.06.1.15.23.11.29.03.03-.04.04-.09.02-.14-.05-.16-.03-.3.05-.41.14-.19.43-.24.62-.08.06.05.09.06.13.06.06,0,.12-.04.15-.1.02-.04.03-.1-.01-.16-.11-.16-.12-.32-.04-.46.1-.2.34-.28.55-.2.05.02.08.03.1.03.08,0,.13-.06.15-.12.01-.04.03-.11-.05-.18-.17-.14-.22-.32-.16-.49.07-.19.24-.31.45-.28h.06c.09,0,.14-.07.16-.13,0-.03.02-.13-.1-.18-.21-.09-.31-.26-.29-.46.02-.19.16-.34.35-.37.13-.02.17-.1.17-.17,0-.07-.04-.15-.15-.16-.22-.03-.37-.16-.4-.36-.03-.19.06-.37.24-.46.14-.07.12-.17.12-.2-.02-.07-.08-.15-.19-.13-.06.01-.08.01-.11.01-.18,0-.33-.11-.4-.28-.06-.17-.02-.35.11-.47.1-.09.08-.16.07-.2-.03-.07-.12-.14-.23-.09-.09.04-.15.06-.22.06-.15,0-.3-.09-.37-.22-.08-.14-.07-.3,0-.43.06-.1.04-.15.02-.19-.05-.09-.17-.12-.26-.05-.24.22-.51.16-.65-.04-.08-.1-.11-.24-.07-.37.02-.08.02-.13-.01-.17-.03-.04-.09-.07-.14-.07-.04,0-.09.01-.13.08-.1.16-.23.23-.38.23-.21,0-.42-.16-.43-.42,0-.16-.11-.19-.17-.19-.04,0-.13.01-.16.12-.06.22-.22.35-.42.35s-.35-.12-.41-.3c-.04-.13-.13-.14-.16-.14-.05,0-.1.02-.13.05-.03.03-.04.07-.04.12,0,.15-.04.26-.12.34-.18.18-.51.16-.66-.06-.1-.15-.23-.11-.29-.03-.03.04-.04.09-.02.14.05.16.03.3-.05.41-.14.19-.43.24-.62.08-.06-.05-.09-.06-.13-.06-.06,0-.12.04-.15.1-.02.04-.03.1.01.17.11.16.12.32.04.46-.1.2-.34.28-.55.2-.05-.02-.08-.03-.1-.03-.08,0-.13.06-.15.12-.01.04-.03.11.05.18.17.14.22.32.16.49-.07.19-.24.31-.45.28h-.06c-.09,0-.14.07-.16.13,0,.03-.02.13.1.18.21.09.31.26.29.46-.02.19-.16.34-.35.37-.13.02-.17.1-.17.17,0,.07.04.15.15.16.22.03.37.16.4.36.03.19-.06.37-.24.46-.14.07-.12.17-.12.2.02.07.08.15.19.13.06-.01.08-.01.11-.01.18,0,.33.11.39.27.06.17.02.35-.11.47-.1.09-.08.16-.07.2.03.07.12.14.23.09.09-.04.15-.06.22-.06.15,0,.3.09.37.22.08.13.07.3-.01.43-.06.1-.04.15-.02.19.05.09.18.12.26.05.23-.22.51-.16.65.04.08.1.11.24.07.37-.02.08-.01.13.01.17.03.04.09.07.14.07.04,0,.09-.01.13-.08.1-.16.23-.23.38-.23h0Zm.6.87c-.2,0-.42-.15-.43-.42,0-.15-.1-.19-.17-.19-.03,0-.1.01-.14.08-.18.3-.55.29-.73.06-.08-.1-.1-.23-.07-.37.03-.1,0-.14-.02-.17-.06-.07-.17-.09-.24-.02-.26.24-.56.14-.69-.09-.08-.13-.07-.29.01-.43.06-.1.04-.16.02-.19-.04-.08-.14-.11-.22-.07-.09.05-.16.06-.22.06-.17,0-.33-.11-.4-.28-.06-.17-.02-.34.11-.47.1-.09.08-.17.07-.2-.02-.05-.07-.11-.15-.11l-.05-.13v.13c-.25.04-.45-.1-.5-.33-.05-.2.05-.39.23-.48.11-.05.13-.13.12-.19,0-.06-.05-.13-.14-.14-.25-.03-.4-.2-.41-.42,0-.22.14-.4.36-.43.12-.02.16-.09.17-.15,0-.06-.02-.14-.1-.17-.22-.09-.32-.29-.28-.49.04-.22.24-.37.47-.34h.05c.08,0,.13-.05.15-.1,0-.03.03-.11-.05-.18-.17-.14-.22-.32-.16-.49.08-.23.35-.35.57-.25.05.02.07.03.1.03.06,0,.11-.04.14-.09.02-.03.04-.1-.01-.17-.11-.16-.12-.32-.05-.46.12-.23.44-.31.65-.13.13.11.21.06.26-.01.02-.03.04-.08.02-.15-.05-.16-.03-.3.05-.41.16-.23.54-.23.7,0,.06.09.11.1.15.1.05,0,.09-.02.12-.05.03-.03.05-.07.04-.12,0-.15.04-.26.11-.34.08-.08.2-.13.31-.13.19,0,.35.12.4.3.04.14.14.14.17.14.06,0,.14-.03.16-.12.06-.22.22-.35.42-.35s.42.15.43.42c0,.15.1.19.17.19.03,0,.1-.01.14-.08.18-.31.55-.29.73-.06.08.1.1.23.07.37-.03.1,0,.14.02.17.06.07.17.09.25.02.26-.24.56-.14.69.09.08.13.07.29-.01.43h0s-.02.03-.02.03c-.04.07-.02.13,0,.16.04.08.13.11.22.07.09-.04.16-.06.22-.06.17,0,.33.11.4.28.06.17.02.35-.11.47-.1.09-.08.17-.07.2.02.05.07.11.15.11l.05.13v-.13c.25-.04.45.1.5.33.05.2-.05.39-.23.48-.11.05-.13.13-.12.19.01.06.05.13.14.14.25.03.4.2.41.42,0,.22-.14.4-.36.43-.12.02-.16.09-.17.15,0,.06.02.14.1.17.22.09.32.29.28.49-.04.22-.23.37-.47.34h-.05c-.08,0-.13.05-.15.11,0,.03-.03.11.05.18.17.14.22.32.16.49-.08.23-.34.35-.57.25-.05-.02-.07-.03-.1-.03-.06,0-.11.04-.14.09-.02.03-.04.1.01.17.11.16.12.32.05.46-.12.23-.45.31-.65.13-.14-.11-.21-.06-.26.01-.02.03-.04.08-.02.15.05.17.03.3-.05.41-.16.23-.54.23-.7,0-.06-.09-.11-.1-.15-.1-.05,0-.09.02-.12.05-.03.03-.04.07-.04.12,0,.15-.04.26-.12.34-.08.08-.2.13-.31.13-.19,0-.35-.12-.4-.3-.04-.14-.14-.14-.17-.14-.06,0-.14.03-.16.12v.03c-.06.19-.22.32-.42.32Z"/>
  <path class="cls-2" d="m30.18,70.1c-2.42-.45-4.52-1.82-5.92-3.85-1.39-2.03-1.91-4.48-1.46-6.91.45-2.42,1.82-4.52,3.85-5.92,2.03-1.39,4.48-1.91,6.91-1.46l-.02.12c-2.39-.45-4.81.07-6.81,1.44-2,1.37-3.35,3.45-3.8,5.84-.92,4.93,2.35,9.69,7.28,10.61l-.02.12Z"/>
  <path class="cls-4" d="m31.87,64.45c-.81,0-1.6-.29-2.22-.82-1.43-1.22-1.6-3.38-.38-4.81.65-.76,1.6-1.19,2.6-1.19.81,0,1.6.29,2.22.82.69.59,1.11,1.42,1.18,2.33.07.91-.22,1.79-.81,2.48-.65.76-1.59,1.19-2.59,1.19Z"/>
  <path class="cls-2" d="m36.9,62.17l-.07-.02c.62-2.72-1.09-5.45-3.81-6.07-1.32-.3-2.68-.07-3.82.65-1.15.72-1.94,1.84-2.25,3.16l-.07-.02c.31-1.34,1.12-2.48,2.28-3.2,1.16-.73,2.54-.96,3.88-.66,2.76.63,4.49,3.39,3.86,6.15Z"/>
  <path class="cls-2" d="m47.23,74.72c-1.96.06-3.91.09-5.87.14l-5.87.08c-1.96.03-3.91.03-5.87.04l-5.87.03-5.87-.03c-1.96-.02-3.91,0-5.87-.04l-5.87-.08c-1.95-.05-3.91-.08-5.87-.14H.09s0-.21,0-.21H.09c-.06-1.53-.09-3.06-.09-4.59v-.15c0-1.68.03-3.36.09-5.05.11-3.26.31-6.52.62-9.78.07-.81.15-1.63.25-2.44l.28-2.44c.23-1.62.42-3.25.7-4.86l.4-2.42.48-2.41.24-1.21.28-1.2.56-2.41c.19-.8.42-1.57.63-2.36l.32-1.18c.06-.21.1-.37.17-.61l.18-.59c.48-1.58,1.03-3.14,1.62-4.68,1.19-3.08,2.57-6.08,4.11-9,1.54-2.92,3.26-5.74,5.15-8.46.95-1.36,1.95-2.68,3.05-3.97.55-.64,1.12-1.27,1.76-1.87.33-.3.66-.6,1.06-.89.1-.07.19-.14.31-.22l.36-.21s.19-.09.28-.13c.11-.04.22-.08.33-.11.14-.04.16-.04.21-.05h.08s.04-.02.04-.02c.1,0-.16,0,.22-.02.13,0,.25.02.38.05.13.02.26.05.32.08.16.06.35.13.46.2l.36.21c.11.07.2.14.31.22.4.29.73.59,1.05.89.64.61,1.2,1.24,1.76,1.88,1.09,1.28,2.09,2.61,3.04,3.97,1.89,2.72,3.62,5.54,5.16,8.45,1.54,2.92,2.92,5.92,4.11,9,.3.77.58,1.55.86,2.32.26.79.54,1.58.77,2.36l.18.58.17.61.32,1.19c.21.79.44,1.58.63,2.38l.55,2.4.27,1.2.24,1.21.47,2.41c.14.81.27,1.62.4,2.42.28,1.61.47,3.24.7,4.86.11.81.19,1.62.28,2.44.09.81.19,1.62.25,2.44.31,3.25.5,6.51.61,9.77.06,1.63.09,3.26.09,4.89,0,.82,0,1.63-.02,2.45l-.03,1.22c0,.18,0,.46-.04.71l-.05.36c-.02.11-.01.2-.02.3v.06s-.15,0-.15,0h0Zm-.15-.43c0-.08,0-.17,0-.24l-.05-.25c-.03-.16-.03-.29-.04-.51l-.05-1.22c-.04-.81-.08-1.62-.14-2.43-.1-1.62-.21-3.24-.36-4.86-.29-3.23-.6-6.46-1.06-9.67-.2-1.61-.46-3.21-.7-4.81-.28-1.59-.53-3.19-.86-4.77-.59-3.18-1.35-6.32-2.17-9.43-.21-.78-.45-1.54-.68-2.32l-.34-1.16-.17-.57-.19-.58c-.25-.78-.52-1.52-.78-2.27-.28-.75-.56-1.5-.87-2.24-1.2-2.97-2.59-5.87-4.13-8.68-1.54-2.81-3.21-5.56-5.06-8.17-.92-1.3-1.89-2.57-2.92-3.76-.51-.59-1.04-1.16-1.58-1.68-.27-.25-.55-.5-.81-.68-.06-.04-.13-.1-.19-.14l-.16-.1c-.06-.03-.06-.02-.09-.04h.03s.08,0,.08,0c.36-.03.08,0,.15,0h-.04s-.08.02-.08.02c-.05,0-.13.02-.08.02h.05s.05-.03,0,0l-.16.1c-.06.03-.13.09-.19.13-.26.18-.54.43-.81.68-.54.51-1.07,1.08-1.59,1.67-1.02,1.19-1.99,2.46-2.91,3.76-1.85,2.61-3.51,5.35-5.05,8.17-1.54,2.81-2.93,5.71-4.13,8.69-.6,1.48-1.15,2.99-1.65,4.51l-.19.57c-.05.15-.11.38-.17.56l-.35,1.17c-.23.78-.48,1.56-.68,2.34l-.6,2.33-.3,1.17-.27,1.18-.53,2.36-.47,2.38c-.34,1.58-.58,3.18-.86,4.77-.24,1.6-.5,3.2-.7,4.81-.45,3.21-.78,6.44-1.06,9.67-.07.81-.14,1.62-.19,2.43-.06.81-.11,1.62-.16,2.43-.1,1.62-.19,3.24-.23,4.86h0s-.21-.21-.21-.21c1.96-.06,3.91-.09,5.87-.13l5.87-.08c1.96-.03,3.91-.02,5.87-.04l5.87-.02,5.87.02c1.96.01,3.91,0,5.87.04l5.87.08c1.9.04,3.81.07,5.71.13Z"/>
  <path class="cls-2" d="m.12,63.51s.11-.99.31-2.72c.21-1.73.54-4.2,1.06-7.14.26-1.47.57-3.06.93-4.73.37-1.67.78-3.43,1.26-5.23.95-3.61,2.16-7.41,3.59-11.12.72-1.85,1.48-3.7,2.3-5.47.39-.9.84-1.76,1.25-2.63.43-.86.87-1.7,1.3-2.52.89-1.64,1.79-3.2,2.7-4.65.9-1.45,1.81-2.79,2.68-4,.44-.6.86-1.18,1.27-1.72.42-.53.82-1.04,1.2-1.51.75-.95,1.46-1.73,2.01-2.4,1.17-1.28,1.85-2.01,1.85-2.01l.08.07s-.66.74-1.81,2.04c-.54.68-1.24,1.47-1.97,2.43-.37.48-.76.99-1.17,1.53-.39.55-.81,1.13-1.24,1.74-.84,1.22-1.73,2.57-2.61,4.02-.89,1.45-1.76,3.02-2.62,4.66-.42.83-.84,1.67-1.26,2.53-.4.87-.83,1.73-1.2,2.63-.79,1.78-1.52,3.62-2.21,5.48-1.36,3.72-2.51,7.51-3.41,11.11-.46,1.8-.83,3.55-1.18,5.21-.33,1.67-.62,3.25-.86,4.71-.47,2.93-.77,5.38-.95,7.1-.17,1.72-.27,2.71-.27,2.71l-1.01-.1Z"/>
  <path class="cls-2" d="m46.39,63.61s-.08-.99-.27-2.7c-.18-1.72-.48-4.17-.95-7.09-.48-2.92-1.13-6.32-2.02-9.91-.44-1.8-.94-3.64-1.5-5.51-.55-1.87-1.19-3.73-1.84-5.6-.69-1.85-1.39-3.7-2.18-5.48-.76-1.79-1.6-3.51-2.43-5.17-.43-.82-.86-1.63-1.29-2.41-.45-.77-.86-1.54-1.31-2.26-.45-.72-.86-1.44-1.31-2.1-.44-.66-.86-1.32-1.28-1.93-.43-.6-.84-1.18-1.23-1.73-.41-.54-.8-1.05-1.17-1.53-.36-.48-.72-.92-1.06-1.32-.33-.4-.64-.77-.92-1.1-.57-.65-1.03-1.15-1.34-1.5-.31-.34-.48-.53-.48-.53l.06-.06s.17.18.48.52c.31.34.78.84,1.36,1.48.28.33.59.7.93,1.09.34.4.71.83,1.08,1.3.37.47.77.98,1.19,1.51.4.55.82,1.12,1.26,1.72.43.6.86,1.25,1.31,1.91.45.66.88,1.37,1.34,2.09.46.72.88,1.48,1.35,2.25.44.78.88,1.58,1.33,2.4.86,1.65,1.72,3.37,2.52,5.16.82,1.78,1.55,3.62,2.27,5.47.69,1.86,1.36,3.73,1.94,5.6.59,1.86,1.12,3.71,1.59,5.52.95,3.6,1.65,7.01,2.18,9.94.52,2.94.85,5.4,1.06,7.12.21,1.73.31,2.71.31,2.71l-1.01.1Z"/>
  <path class="cls-2" d="m.13,64.15s.1-.94.3-2.6c.21-1.65.54-4.01,1.06-6.82.52-2.81,1.24-6.06,2.2-9.5.49-1.72,1.02-3.48,1.63-5.25.59-1.78,1.26-3.56,1.98-5.32.72-1.76,1.49-3.5,2.3-5.19.4-.85.84-1.67,1.25-2.49.44-.8.86-1.61,1.31-2.38.89-1.55,1.78-3.02,2.69-4.38.9-1.36,1.8-2.62,2.66-3.76.44-.56.86-1.1,1.25-1.61.42-.5.81-.97,1.18-1.42.74-.89,1.44-1.62,1.99-2.24,1.16-1.19,1.82-1.88,1.82-1.88l.07.07s-.65.69-1.78,1.9c-.54.63-1.22,1.37-1.95,2.27-.36.45-.75.93-1.16,1.43-.39.52-.8,1.06-1.23,1.63-.84,1.15-1.72,2.41-2.59,3.78-.88,1.37-1.75,2.84-2.62,4.39-.43.78-.84,1.58-1.26,2.39-.4.82-.82,1.64-1.21,2.49-.79,1.69-1.53,3.43-2.22,5.19-.68,1.76-1.32,3.54-1.89,5.32-.58,1.77-1.08,3.53-1.54,5.24-.91,3.43-1.57,6.67-2.05,9.46-.48,2.79-.77,5.14-.96,6.78-.18,1.64-.26,2.59-.26,2.59l-.98-.1Z"/>
  <path class="cls-2" d="m4.37,75.93s.61-.04,1.67-.08c1.06-.04,2.58-.11,4.4-.16,1.82-.05,3.94-.1,6.21-.13,1.14-.01,2.31-.02,3.5-.04,1.19,0,2.41,0,3.62-.01,1.21,0,2.43,0,3.62.01,1.19,0,2.37.03,3.5.04,2.27.03,4.4.08,6.21.13,1.82.05,3.33.13,4.4.16,1.06.05,1.67.08,1.67.08,0,0-.61.04-1.67.08-1.06.04-2.58.11-4.4.16-1.82.05-3.94.1-6.21.13-1.14.01-2.31.04-3.5.04-1.19,0-2.41,0-3.62.01-1.21,0-2.42,0-3.62-.01-1.19-.01-2.37-.03-3.5-.04-2.27-.03-4.4-.08-6.21-.13-1.82-.05-3.33-.13-4.4-.16-1.06-.05-1.67-.08-1.67-.08Z"/>
  <path class="cls-3" d="m3.04,54.9C6.66,35.84,15.8,21.33,23.77,13.63v31.72c-1.78,2-3.41,3.77-5.47,6.02-2.1-1.15-4.2-1.64-6.15-1.64-4.32,0-7.9,2.39-9.1,5.16Z"/>
  <path d="m27.51,53.5c-.1.1-.19.21-.19.24,0,.04-.09.09-.21.12-.29.07-.92.5-.89.59l.02.07h.19s.19-.03.19-.03l.19.24c.11.13.19.25.19.27s.13.22.29.45l.29.42-.1.17c-.21.35-.04.42.33.12.12-.09.34-.23.47-.3.14-.07.3-.17.35-.24l.11-.11-.06-.09-.06-.09-.2.07c-.11.04-.21.07-.21.06-.03-.06-.5-.76-.53-.79-.09-.07-.24-.44-.24-.58v-.16l.1-.04c.12-.04.11-.06.21.14l.07.14.22-.03c.4-.07.51-.4.22-.68l-.17-.17h-.39l-.19.19Z"/>
  <path d="m32.73,53.54s-.16.11-.25.19l-.16.14v.56l.18.16.18.16h.53l.19-.19.19-.19v-.42l-.17-.19-.17-.19-.22-.02c-.12-.01-.26-.01-.31.01Z"/>
  <path d="m25.08,55.91c-.2.13-.24.17-.49.49l-.2.26v.62l.19.19c.23.23.24.23.42.05.19-.2.22-.6.05-.6-.05,0-.14-.06-.19-.14l-.09-.13.06-.12c.07-.14.22-.14.46,0l.19.11.02.29.02.29-.09.19c-.06.11-.1.3-.1.43v.23l.22.19.22.19h.14c.19,0,.41-.18.69-.56l.22-.31-.04-.12-.04-.12.11-.04c.22-.08.6-.6.54-.75-.04-.11-.25-.09-.29.02-.05.14-.21.12-.44-.05-.86-.63-1.31-.81-1.59-.62Zm1.08,1.16l.23.16.04.16c.09.34-.11.45-.42.25l-.21-.14-.02-.21c-.04-.41.04-.45.38-.22Z"/>
  <path d="m39.12,56.02s0,.11.02.2c.07.19.03.32-.1.32-.05,0-.14.02-.21.06-.14.08-1.06.5-1.1.5s-.85.37-1.04.47c-.09.04-.23.09-.32.09h-.16l-.04-.12c-.02-.06-.09-.13-.16-.15l-.12-.03-.03.07s.08.3.22.57c.14.27.25.52.25.56,0,.19.3.66.63.98l.37.36h.73l.25-.25.25-.25v-.37c0-.42,0-.42.3-.2l.22.16h.27s.28.01.28.01l.21-.23.21-.24v-.17c.04-.52-.02-.73-.3-1.26-.2-.37-.25-.5-.25-.61,0-.07-.04-.16-.09-.2s-.09-.13-.09-.19c0-.11-.12-.16-.21-.08Zm.56,1.58l.02.34-.22.14c-.12.08-.26.14-.3.14-.05,0-.16.03-.25.07l-.16.07-.21-.21c-.24-.23-.28-.42-.11-.47.06-.02.3-.13.54-.25.24-.11.49-.2.56-.19h.12s.01.35.01.35Zm-1.47.45c0,.08.03.17.06.21l.06.06-.09.22-.09.22-.3.16c-.16.09-.41.18-.55.2l-.25.04-.17-.14c-.09-.07-.19-.21-.21-.3l-.04-.17.55-.26c.3-.14.59-.28.64-.31.05-.02.16-.05.24-.05h.14s0,.14,0,.14Z"/>
  <path d="m23.46,59.02v.42l-.09.12c-.05.07-.1.29-.11.49l-.02.36.19.11c.2.12.59.16.59.06,0-.03-.1-.16-.22-.28l-.22-.22.04-.24c.02-.12.06-.25.07-.28.02-.04.3.18.86.67.9.79.98.89.91,1.14l-.03.12-.29.11c-.16.06-.36.12-.45.14s-.21.07-.28.12c-.07.05-.16.09-.22.09-.14,0-.34.19-.47.43l-.11.21.11.37.11.37.21.24.21.24.19.04.19.04.15-.1.16-.1v-.42l-.17-.11-.16-.11-.12.07c-.16.1-.35.08-.42-.04l-.06-.11.06-.1c.03-.06.18-.14.32-.18l.26-.07.37.39c.21.22.45.44.55.48l.18.08.21-.07.22-.07.09-.21.09-.21-.07-.3-.07-.29-.17-.19-.18-.19v-.59l-.11-.17c-.06-.09-.15-.2-.19-.24l-.09-.06.1-.47c.06-.25.14-.57.17-.71s.07-.4.07-.58v-.34s-.3-.09-.3-.09c-.16-.05-.34-.07-.39-.06-.09.04-.12.22-.04.22.03,0,.13.06.22.14l.17.15-.02.33-.02.33-.07.02s-.2-.08-.35-.21-.42-.36-.61-.52-.42-.35-.51-.45l-.18-.17h-.3v.42Zm2.35,3.32s.07.14.07.22v.14l-.22.09-.22.09-.22-.12-.23-.12-.02-.12-.02-.13.24-.06c.33-.09.54-.09.63,0Z"/>
  <path d="m39.21,60.91l-.12.13-.45-.04c-.25-.02-.58-.07-.75-.11l-.29-.07-.18.11c-.22.13-.36.35-.42.67l-.04.22.08.22.08.22-.1.07c-.06.04-.12.21-.14.36-.02.15-.07.31-.11.35-.09.11-.02.27.12.27.07,0,.16-.06.21-.14l.09-.14.46.08c.25.04.67.11.93.13l.47.06.06-.06s.07-.17.07-.31.04-.29.08-.32.07-.13.07-.21v-.14h-.11c-.07,0-.17.06-.24.13l-.12.13-.31-.04c-.91-.12-1.27-.28-1.27-.58v-.14l.14-.09.14-.09.31.06c.42.09,1.08.17,1.29.17h.17s0-.14,0-.14c0-.07.04-.27.1-.42.16-.44.04-.63-.22-.36Z"/>
  <path d="m35.59,63.37c-.09.06-.21.2-.27.33l-.11.23.11.21c.06.12.12.24.16.27.34.43.72.88.77.93.04.03.23.27.42.53.19.26.39.52.43.57.22.23.36.5.36.67,0,.1.02.2.06.22.07.04.29-.21.35-.39.02-.07.07-.14.1-.14s.06-.07.06-.16v-.16h-.09s-.11.02-.13.06c-.02.03-.09.06-.16.06h-.12l-.04-.12c-.02-.07-.06-.12-.09-.12s-.07-.05-.09-.11c-.02-.06-.11-.19-.2-.28-.2-.21-.16-.28.12-.18.12.04.34.07.5.07h.29v.14c0,.08.02.16.04.19.06.05.34-.14.34-.23,0-.04.11-.24.25-.44s.25-.42.25-.49v-.11h-.11c-.06,0-.16.05-.22.11l-.12.11-.7-.08c-.39-.04-.87-.1-1.08-.13l-.39-.05-.16-.17c-.09-.09-.16-.19-.16-.21s-.09-.13-.19-.25c-.11-.11-.19-.25-.19-.29,0-.12.12-.17.16-.06l.04.1h.31l.12-.14c.15-.18.15-.32,0-.48l-.12-.12h-.17c-.1,0-.24.06-.33.11Z"/>
  <path d="m26.56,63.99l-.17.02-.25.25-.25.25v.17c-.02.35.02.53.14.7.07.09.11.2.09.24l-.04.07-.24-.04c-.14-.02-.34-.02-.45,0l-.21.04-.15.22-.15.22.03.31.03.3.24.29c.13.16.41.42.62.58s.49.39.64.53l.27.24.09-.04c.13-.05.12-.14-.03-.22-.19-.1-.15-.22.21-.64.17-.21.34-.41.37-.45.02-.03.17-.21.32-.37.16-.17.29-.33.29-.35s.05-.09.11-.16c.06-.07.2-.24.32-.39.24-.28.31-.3.54-.16l.16.11.07-.07.06-.06-.04-.13c-.02-.07-.08-.13-.12-.13-.05,0-.11-.04-.14-.08s-.16-.15-.3-.24-.39-.29-.56-.45c-.48-.44-.99-.63-1.47-.55Zm1.22.65c.23.18.21.29-.16.71-.18.21-.36.44-.42.52-.05.07-.15.17-.22.21l-.12.07-.15-.17c-.08-.1-.17-.25-.21-.32l-.06-.15.11-.19c.39-.71.85-.95,1.23-.66Zm-1.09,1.54c.18.12.17.16-.07.4-.11.11-.3.34-.41.5-.24.34-.35.36-.55.15l-.14-.15v-.17s0-.18,0-.18l.21-.28.2-.28.22-.07c.22-.07.3-.06.54.09Z"/>
  <path d="m31.43,67.31l-.19.19v.47l.19.19.19.19h.46l.2-.16.2-.17v-.56l-.2-.18-.2-.17h-.46l-.19.19Z"/>
</svg>